<svg width="24" height="24" viewBox="0 0 24 24" fill="none" xmlns="http://www.w3.org/2000/svg">
<rect width="24" height="24" rx="12" fill="url(#paint0_linear_2_349)"/>
<path d="M6.85742 12.1497C6.85742 13.8844 7.35355 15.1503 8.34579 15.9474C9.33804 16.7446 10.7046 17.1431 12.4455 17.1431C13.5927 17.1431 14.5562 16.9869 15.3358 16.6744C16.1155 16.3573 16.7179 16.0131 17.1431 15.6417V11.5383H12.2993V13.4406H14.5385V14.7585C14.2506 14.9216 13.9427 15.0348 13.6149 15.0982C13.2915 15.1571 12.9061 15.1865 12.4588 15.1865C11.5817 15.1865 10.8818 15.0008 10.3591 14.6295C9.84081 14.2535 9.58167 13.5425 9.58167 12.4962V11.4975C9.58167 10.4921 9.81645 9.79911 10.286 9.41866C10.76 9.03368 11.3558 8.84119 12.0734 8.84119C12.8353 8.84119 13.4156 8.95442 13.8142 9.18088C14.2173 9.40281 14.4322 9.72211 14.4588 10.1388L14.4654 10.2203H17.1232V10.1116C17.1232 8.99292 16.678 8.17088 15.7877 7.6455C14.9017 7.12011 13.6968 6.85742 12.173 6.85742C10.6094 6.85742 9.3314 7.25599 8.33915 8.05312C7.35133 8.85025 6.85742 10.1139 6.85742 11.844V12.1497Z" fill="#090909"/>
<defs>
<linearGradient id="paint0_linear_2_349" x1="0" y1="12" x2="24" y2="12" gradientUnits="userSpaceOnUse">
<stop stop-color="#C5ACFF"/>
<stop offset="1" stop-color="#FBC2EB"/>
</linearGradient>
</defs>
</svg>
